<!DOCTYPE svg PUBLIC "-//W3C//DTD SVG 1.1//EN" "http://www.w3.org/Graphics/SVG/1.1/DTD/svg11.dtd">
<!-- Uploaded to: SVG Repo, www.svgrepo.com, Transformed by: SVG Repo Mixer Tools -->
<svg fill="#ffffff" width="800px" height="800px" viewBox="0 0 64 64" data-name="Layer 1" id="Layer_1" xmlns="http://www.w3.org/2000/svg" data-darkreader-inline-fill="" style="--darkreader-inline-fill: var(--darkreader-background-ffffff, #181a1b); --darkreader-inline-stroke: var(--darkreader-text-ffffff, #e8e6e3);" stroke="#ffffff" data-darkreader-inline-stroke="">
<g id="SVGRepo_bgCarrier" stroke-width="0"/>
<g id="SVGRepo_tracerCarrier" stroke-linecap="round" stroke-linejoin="round"/>
<g id="SVGRepo_iconCarrier">
<title/>
<path d="M58,53.25H6a2,2,0,0,1-2-2V43.54a2,2,0,0,1,4,0v5.71H56V19.75H34.91a2,2,0,0,1-1.23-.42L27.8,14.75H8V31.16a2,2,0,0,1-4,0V12.75a2,2,0,0,1,2-2H28.48a2,2,0,0,1,1.23.42l5.89,4.58H58a2,2,0,0,1,2,2v33.5A2,2,0,0,1,58,53.25Z"/>
</g>
</svg>